<svg xmlns="http://www.w3.org/2000/svg" width="2560" height="1440" viewBox="0 0 2560 1440">
  <defs>
    <style>
      .cls-1, .cls-2 {
        fill: none;
      }

      .cls-1 {
        fill-rule: evenodd;
      }
    </style>
  </defs>
  <path class="cls-1" d="M544,942l-3-117,168-17,15,34,54-29,45,2,12,26,21-6,38-21,54,10,27,24,14-1,36-21,28-1,23-41s28,23,30,29,19-24,19-24l1-41s39-6,44-4,55,6,55,6l14,22s3,27,3,32-5,29-5,29l-26,15,27,19,14-12,46-34,29,13-6,41-44,43-17,21-20,8,4,30-17,23-1,34,27,48-6,16-36,14-42-26-24,21-44-15-20,25h-65l-28-16-21,21-93-6-32-17-37,27-73-5-33-14-16-62-1-52-84-21-21,128-39,1Z"/>
  <rect class="cls-2" width="2560" height="1440"/>
</svg>
