<svg xmlns="http://www.w3.org/2000/svg" width="2560" height="1440" viewBox="0 0 2560 1440">
  <defs>
    <style>
      .cls-1, .cls-2 {
        fill: none;
      }

      .cls-1 {
        fill-rule: evenodd;
      }
    </style>
  </defs>
  <path class="cls-1" d="M1145,662s0.22-1.685.63-4.788C1150.33,621.184,1180,394,1180,394l23-33,55,135,9-103,29,1s12,28,12,32,33-26,33-26l133-5,15,38,57-4,19,19-4,35,7,37,50,2-6-99,55-49-1-40,24-22,60,11s11,37,10,41,26,27,29,32,15,48,15,48l1,161,7,14,28-13,27,14-2,39-14,37-49,13-38-24-29-45,1-42-53,9,6,54s-12,21-19,24-53,3-53,3l-10-19-45,20-62-14-27,33-26,4-17-114-32-19-18,6-20,109-48-2-6-24-23,31-50-10-1-29-18,46-62-11Z"/>
  <rect class="cls-2" width="2560" height="1440"/>
</svg>
